<svg width="56" height="75" viewBox="0 0 56 75" fill="none" xmlns="http://www.w3.org/2000/svg">
<path fill-rule="evenodd" clip-rule="evenodd" d="M11.9808 48.0981V7.62294H12.7631C14.3615 7.62294 15.1082 8.87405 15.1082 10.5149V44.9463C15.1082 47.0269 14.0109 48.0541 11.9827 48.1001L11.9808 48.0981ZM0 55.195H14.3258C20.8658 55.195 27.0889 51.6995 27.0889 45.2082V10.2511C27.0889 4.25734 20.9569 0.526001 16.4094 0.526001H0V55.195H0Z" fill="#00BD4F"/>
<path fill-rule="evenodd" clip-rule="evenodd" d="M40.6322 46.785V8.6742C40.6322 7.06135 44.2785 7.06135 44.2785 8.6742V46.785C44.2785 48.306 40.6322 48.306 40.6322 46.785ZM28.9109 9.46364V46.2594C28.9109 53.838 36.055 55.7207 42.4544 55.7207C49.0835 55.7207 55.9998 52.7788 55.9998 46.2594V9.98927C55.9998 3.39996 50.8106 0.00238415 44.2785 0.00238415C40.036 0.00238415 36.0451 -0.167495 32.5493 2.3607C30.6756 3.71574 28.9109 6.25593 28.9109 9.46564V9.46364Z" fill="#00BD4F"/>
<path fill-rule="evenodd" clip-rule="evenodd" d="M4.68821 71.4914C4.68821 68.9013 4.42281 68.9573 5.73002 68.0739C5.73002 70.6221 6.1301 71.5994 5.20911 72.2789C4.76942 71.9711 4.68821 72.2409 4.68821 71.4914ZM0.25955 63.8689V65.7076H4.68821C4.68821 62.5878 4.42479 62.8716 5.20911 62.29C5.88451 62.7637 5.73002 62.1481 5.73002 64.9181C5.73002 66.7108 0.25955 66.2072 0.25955 69.3869C0.25955 73.7239 0.0892168 74.907 4.16731 74.907C4.79715 74.907 5.50027 74.4633 5.73002 73.592L5.99146 74.6432H10.4201V65.4438C10.4201 59.6239 8.09488 59.6619 4.42875 59.6619C2.1451 59.6619 0.26153 61.5106 0.26153 63.8669L0.25955 63.8689Z" fill="#275432"/>
<path fill-rule="evenodd" clip-rule="evenodd" d="M48.9687 63.0794C48.9687 62.34 49.0816 62.5918 49.4896 62.29C49.9293 62.5978 50.0105 62.328 50.0105 63.0794V65.1819H48.9687V63.0794ZM44.2805 65.1819C44.2805 71.5934 43.5735 74.907 50.2719 74.907C54.2747 74.907 54.7006 71.5774 54.7006 68.5995H50.2719C50.2719 71.5514 50.5987 71.9112 49.2301 72.2789C48.7092 71.3416 48.9687 68.7314 48.9687 67.5483H54.6986C54.6986 62.0282 54.245 59.6639 48.7072 59.6639C45.3639 59.6639 44.2786 62.1321 44.2786 65.1839L44.2805 65.1819Z" fill="#275432"/>
<path fill-rule="evenodd" clip-rule="evenodd" d="M11.4618 64.6583C11.4618 66.9407 11.2103 71.4095 12.2323 73.0783C13.5554 75.2388 21.6185 77.4092 21.6185 68.5995H17.4512C17.4512 71.5674 17.7483 71.5494 16.6689 72.2789C16.354 71.8052 16.148 71.8172 16.148 71.2276V63.0794C16.148 62.34 16.2609 62.5918 16.6689 62.29C17.4176 62.8156 17.1898 62.3799 17.1898 65.4437H21.6185C21.6185 60.897 19.9508 59.6619 15.8885 59.6619C13.0067 59.6619 11.4599 61.6904 11.4599 64.6563L11.4618 64.6583Z" fill="#275432"/>
<path fill-rule="evenodd" clip-rule="evenodd" d="M36.9859 74.6452C43.6467 74.6452 42.0622 76.318 43.2823 67.5942L44.2786 59.9277H40.3708C40.1133 63.0514 39.5904 66.2192 39.5904 69.6527H39.329C39.329 67.6442 38.2872 62.3799 38.2872 59.9277H34.12L35.8669 71.3076C36.0016 72.123 36.063 72.4987 36.1402 73.1343C36.2471 74.0176 36.0511 74.6472 36.9859 74.6472V74.6452Z" fill="#275432"/>
<path fill-rule="evenodd" clip-rule="evenodd" d="M22.6605 60.4513H21.6187V62.8176H22.6605V72.8045C22.6605 75.1908 27.1565 74.6452 28.6518 74.6452V72.2789C27.7071 72.2569 27.0891 72.163 27.0891 71.2277V62.8176H28.3924V60.4513H27.0891V58.085H22.6605V60.4513Z" fill="#275432"/>
<path fill-rule="evenodd" clip-rule="evenodd" d="M29.1726 74.6452H33.8607V59.9257H29.1726V74.6452Z" fill="#275432"/>
<path fill-rule="evenodd" clip-rule="evenodd" d="M29.1726 59.1383H33.8607V56.7719H29.1726V59.1383Z" fill="#275432"/>
</svg>
