<svg width="32" height="23" viewBox="0 0 32 23" fill="none" xmlns="http://www.w3.org/2000/svg">
<path d="M23.0832 4.33337H27.3332L31.5832 10.0794V18.5H28.7003C28.5319 19.682 27.9427 20.7634 27.0409 21.5458C26.1392 22.3282 24.9854 22.7589 23.7916 22.7589C22.5977 22.7589 21.4439 22.3282 20.5422 21.5458C19.6404 20.7634 19.0512 19.682 18.8828 18.5H11.7003C11.5319 19.682 10.9427 20.7634 10.0409 21.5458C9.13918 22.3282 7.98542 22.7589 6.79156 22.7589C5.59771 22.7589 4.44395 22.3282 3.54219 21.5458C2.64043 20.7634 2.05123 19.682 1.88282 18.5H0.416565V1.50004C0.416565 1.12432 0.56582 0.763983 0.831497 0.498306C1.09717 0.23263 1.45751 0.083374 1.83323 0.083374H21.6666C22.0423 0.083374 22.4026 0.23263 22.6683 0.498306C22.934 0.763983 23.0832 1.12432 23.0832 1.50004V4.33337ZM23.0832 7.16671V11.4167H28.7499V11.013L25.9052 7.16671H23.0832Z" fill="#5BBC58"/>
</svg>
