<svg width="28" height="28" viewBox="0 0 28 28" fill="none" xmlns="http://www.w3.org/2000/svg">
<path d="M3.95729 16.7042L10.9734 23.7203C8.72566 24.6427 6.20506 24.6427 3.95729 23.7203C3.03493 21.4726 3.03493 18.952 3.95729 16.7042ZM18.6798 21.0187L18.4113 25.2941L16.481 27.2244L0.453221 11.1967L2.38356 9.26631L6.65897 8.99784L12.474 3.18277C15.9631 -0.306269 21.4406 -0.767066 26.0425 1.63509C28.4447 6.23706 27.9839 11.7145 24.4949 15.2036L18.6798 21.0187ZM16.481 11.1967C17.0123 11.728 17.733 12.0265 18.4844 12.0265C19.2359 12.0265 19.9566 11.728 20.4879 11.1967C21.0193 10.6653 21.3178 9.94463 21.3178 9.19318C21.3178 8.44173 21.0193 7.72107 20.4879 7.18971C19.9566 6.65836 19.2359 6.35985 18.4844 6.35985C17.733 6.35985 17.0123 6.65836 16.481 7.18971C15.9496 7.72106 15.6511 8.44173 15.6511 9.19318C15.6511 9.94463 15.9496 10.6653 16.481 11.1967Z" fill="#5BBC58"/>
</svg>
