<svg width="26" height="31" viewBox="0 0 26 31" fill="none" xmlns="http://www.w3.org/2000/svg">
<path d="M5.04105 7.45474C5.04105 7.45459 5.04112 7.45445 5.04123 7.45436C7.299 5.64546 10.1069 4.66189 12.9999 4.6665C15.9139 4.6665 18.5996 5.64345 20.7473 7.28897C20.8686 7.38194 21.0405 7.37273 21.1486 7.26464L22.805 5.60822C22.9222 5.49106 23.1121 5.49106 23.2293 5.60822L24.8082 7.18712C24.9253 7.30428 24.9253 7.49423 24.8082 7.61139L23.1516 9.26795C23.0436 9.37598 23.0343 9.54773 23.1271 9.66908C24.5293 11.5023 25.4087 13.6833 25.6689 15.98C25.9391 18.3656 25.5303 20.779 24.4894 22.9426C23.4486 25.1061 21.8181 26.9318 19.7854 28.2095C17.7528 29.4872 15.4007 30.1651 12.9999 30.1651C10.599 30.1651 8.24694 29.4872 6.21432 28.2095C4.1817 26.9318 2.55116 25.1061 1.51032 22.9426C0.469491 20.779 0.0606711 18.3656 0.330912 15.98C0.591073 13.6834 1.47041 11.5024 2.87257 9.66915C2.96542 9.54777 2.95612 9.37597 2.84803 9.26795L1.19175 7.6128C1.07452 7.49566 1.07449 7.30565 1.19167 7.18847L2.7705 5.60964C2.88766 5.49248 3.07761 5.49248 3.19477 5.60964L5.04022 7.45509C5.04052 7.45539 5.04105 7.45518 5.04105 7.45474ZM14.7165 15.9998C14.5509 15.9998 14.4165 15.8655 14.4165 15.6998V10.5003C14.4165 10.2138 14.0533 10.0903 13.8787 10.3175L7.70434 18.3503C7.55268 18.5476 7.69334 18.8332 7.94219 18.8332H11.2832C11.4489 18.8332 11.5832 18.9675 11.5832 19.1332V24.3261C11.5832 24.6126 11.9463 24.7361 12.121 24.509L18.2951 16.4828C18.4468 16.2855 18.3062 15.9998 18.0573 15.9998H14.7165ZM7.33322 0.716504C7.33322 0.550818 7.46753 0.416504 7.63322 0.416504H18.3665C18.5322 0.416504 18.6665 0.550818 18.6665 0.716504V2.94984C18.6665 3.11552 18.5322 3.24984 18.3665 3.24984H7.63322C7.46753 3.24984 7.33322 3.11552 7.33322 2.94984V0.716504Z" fill="#5BBC58"/>
</svg>
